<svg width="20" height="22" viewBox="0 0 20 22" fill="none" xmlns="http://www.w3.org/2000/svg">
<path d="M10.5581 1.10061L10 1.8182L10 1.81821L10.5581 1.10061ZM9.44187 1.10061L10 1.81821L10 1.81821L9.44187 1.10061ZM18.7399 7.46425L19.2981 6.74666L19.2981 6.74666L18.7399 7.46425ZM1.70789 20.1103L1.06507 20.7531L1.06507 20.7531L1.70789 20.1103ZM1.26006 7.46425L0.701928 6.74666H0.701927L1.26006 7.46425ZM7.27273 20.909H6.36364C6.36364 21.4111 6.77065 21.8181 7.27273 21.8181V20.909ZM12.7273 20.909V21.8181C13.2293 21.8181 13.6364 21.4111 13.6364 20.909H12.7273ZM11.1163 0.383022C10.4597 -0.127641 9.54031 -0.12764 8.88374 0.383021L10 1.81821L10 1.8182L11.1163 0.383022ZM19.2981 6.74666L11.1163 0.383021L10 1.81821L18.1818 8.18184L19.2981 6.74666ZM20 8.18184C20 7.62076 19.741 7.09112 19.2981 6.74666L18.1818 8.18184L18.1818 8.18184H20ZM20 18.1818V8.18184H18.1818V18.1818H20ZM18.9349 20.7531C19.6169 20.0712 20 19.1463 20 18.1818H18.1818C18.1818 18.6641 17.9903 19.1265 17.6493 19.4675L18.9349 20.7531ZM16.3636 21.8182C17.3281 21.8182 18.253 21.4351 18.9349 20.7531L17.6493 19.4675C17.3083 19.8085 16.8458 20 16.3636 20V21.8182ZM3.63636 21.8182H16.3636V20H3.63636V21.8182ZM1.06507 20.7531C1.74702 21.4351 2.67194 21.8182 3.63636 21.8182V20C3.15415 20 2.69169 19.8085 2.35072 19.4675L1.06507 20.7531ZM1.56537e-06 18.1818C1.56537e-06 19.1463 0.383118 20.0712 1.06507 20.7531L2.35072 19.4675C2.00974 19.1265 1.81818 18.6641 1.81818 18.1818H1.56537e-06ZM1.56537e-06 8.18184V18.1818H1.81818V8.18184H1.56537e-06ZM0.701927 6.74666C0.259043 7.09112 1.56537e-06 7.62077 1.56537e-06 8.18184H1.81818L1.81818 8.18184L0.701927 6.74666ZM8.88374 0.383021L0.701928 6.74666L1.81818 8.18184L10 1.81821L8.88374 0.383021ZM8.18182 12.7272C8.18182 12.2251 8.58883 11.8181 9.09091 11.8181V9.99992C7.58468 9.99992 6.36364 11.221 6.36364 12.7272H8.18182ZM8.18182 20.909V12.7272H6.36364V20.909H8.18182ZM12.7273 19.9999H7.27273V21.8181H12.7273V19.9999ZM11.8182 12.7272V20.909H13.6364V12.7272H11.8182ZM10.9091 11.8181C11.4112 11.8181 11.8182 12.2251 11.8182 12.7272H13.6364C13.6364 11.221 12.4153 9.99992 10.9091 9.99992V11.8181ZM9.09091 11.8181H10.9091V9.99992H9.09091V11.8181Z" fill="black"/>
</svg>
